<?xml version="1.0" encoding="utf-8"?>
<!-- Generator: Adobe Illustrator 25.2.1, SVG Export Plug-In . SVG Version: 6.00 Build 0)  -->
<svg version="1.1" id="Capa_1" xmlns="http://www.w3.org/2000/svg" xmlns:xlink="http://www.w3.org/1999/xlink" x="0px" y="0px"
	 viewBox="0 0 1518 1378" style="enable-background:new 0 0 1518 1378;" xml:space="preserve">
<style type="text/css">
	.st0{fill:#FBD633;}
	.st1{fill:#FBE277;}
</style>
<g>
	<g>
		<path class="st0" d="M778,689H99.8c0,360.6,292.4,653,653,653c8.5,0,16.9-0.2,25.2-0.5V689z"/>
	</g>
	<path class="st1" d="M778,36.5c-8.4-0.3-16.8-0.5-25.2-0.5c-360.6,0-653,292.4-653,653H778V36.5z"/>
</g>
<g>
	<g>
		<path class="st0" d="M775,689h678.2c0,360.6-292.4,653-653,653c-8.5,0-16.9-0.2-25.2-0.5V689z"/>
	</g>
	<path class="st1" d="M775,36.5c8.4-0.3,16.8-0.5,25.2-0.5c360.6,0,653,292.4,653,653H775V36.5z"/>
</g>
</svg>
