<?xml version="1.0" encoding="utf-8"?>
<!-- Generator: Adobe Illustrator 25.2.1, SVG Export Plug-In . SVG Version: 6.00 Build 0)  -->
<svg version="1.1" id="Capa_1" xmlns="http://www.w3.org/2000/svg" xmlns:xlink="http://www.w3.org/1999/xlink" x="0px" y="0px"
	 viewBox="0 0 669 229" style="enable-background:new 0 0 669 229;" xml:space="preserve">
<style type="text/css">
	.st0{fill:#093764;}
</style>
<g>
	<g>
		<g>
			<g>
				<g>
					<path class="st0" d="M176.3,115.3c-5,9.3-8.9,13.7-13.1,14.5c-1.5,0.3-2.8,0-3.8-0.5c3.3-6.1,6.2-12.2,8.4-17.1
						c1.2-2.9-0.5-6.9-3.7-8.8c-1.6-0.9-3.3-1.2-4.5,0.7c-4.8,6.9-6.4,13.1-6.5,17.9c-3.7,7.4-9.4,19.5-14.2,25.9
						c-0.9,1.2-1.3,0.8-1.2-0.4c0.5-9.4,3.7-27.7,6.5-38.2c0.3-1.2,1.6-3.2,0.1-4.1c-1.7-1.2-5.8-2.7-8.5-2.7c-1.2,0-1.9,0.8-2.3,2
						c-1.6,5.5-2.7,11.8-3.6,18.4c-3.4,8.4-8.3,18.5-14.1,24.7c-1.9,2-2.5,1.5-2.1-1.5c2.4-18.7,11-55.8,17.6-67.8
						c0.4-0.9,1.1-1.5,1.6-2.3c0.3-0.1,0.4-0.4,0.4-0.7c0-2-9-5.4-11.7-5.4c-3,0-8.4,16.7-12.5,35.7c-3.7-1.9-8.8-5.2-13-2.8
						c-12.3,6.6-18.7,27.6-18,41.9c0.3,5.7,3,10.7,9.7,10.7c6.5,0,11.7-7.2,15.4-15.1c0,0.8-0.1,1.5-0.1,2.1c-0.4,5.2-0.7,13,6.8,13
						c6.9,0,13.8-10.7,18.9-21.2c-0.3,4.7-0.5,9.4-0.5,13.7c0,4.2,7.4,7.6,11.4,7.6c2,0,4-1.7,5.2-3.3c4.2-5.2,8.8-12.5,12.9-19.8
						c1.7,1.1,3.8,1.3,6.2,0.9c5.2-0.9,10.1-6,15.6-16.3C180.7,114.9,177.5,113.1,176.3,115.3z M105.1,125.9
						c-2.3,6.5-5.2,13.5-8.2,18c-1.9,2.9-3.6,4.2-4.9,4.2c-2,0-3-2.8-2.7-7.3c1.2-11.7,7-32.8,15.8-32.8c1.3,0,2.4,0.9,2.9,2.1
						C107,115.5,105.9,120.8,105.1,125.9z"/>
					<path class="st0" d="M126.5,43C83.8,43,49,77.7,49,120.4s34.7,77.4,77.4,77.4c42.7,0,77.4-34.7,77.4-77.4S169.1,43,126.5,43z
						 M126.5,193.6c-40.4,0-73.2-32.8-73.2-73.2s32.8-73.2,73.2-73.2c40.4,0,73.2,32.8,73.2,73.2S166.8,193.6,126.5,193.6z"/>
				</g>
			</g>
			<g>
				<g>
					<path class="st0" d="M261.3,108.8c0.8,0,1.4-0.2,1.9-0.7c0.5-0.5,0.7-1.1,0.7-1.8c0-0.8-0.3-1.4-0.7-1.9s-1.1-0.7-1.9-0.7
						h-20.2c-0.8,0-1.4,0.3-1.9,0.8c-0.5,0.5-0.8,1.2-0.8,2v30.9c0,0.8,0.3,1.4,0.8,2c0.5,0.5,1.2,0.8,1.9,0.8h20.2
						c0.8,0,1.4-0.2,1.9-0.7c0.5-0.5,0.7-1.1,0.7-1.9c0-0.8-0.3-1.4-0.7-1.8c-0.5-0.5-1.1-0.7-1.9-0.7h-17.5v-10.6h12.4
						c0.8,0,1.4-0.2,1.9-0.7c0.5-0.5,0.8-1.1,0.8-1.9c0-0.7-0.3-1.4-0.8-1.9c-0.5-0.5-1.1-0.7-1.9-0.7h-12.4v-10.3H261.3z"/>
					<path class="st0" d="M301.5,106c-2.7-1.5-5.8-2.3-9.2-2.3h-8.1c-0.8,0-1.4,0.3-1.9,0.8c-0.5,0.5-0.8,1.2-0.8,2v30.9
						c0,0.8,0.3,1.4,0.8,2c0.5,0.5,1.2,0.8,1.9,0.8h8.1c3.4,0,6.5-0.8,9.2-2.3c2.7-1.6,4.8-3.7,6.3-6.5c1.5-2.8,2.2-5.9,2.2-9.4
						c0-3.5-0.8-6.7-2.2-9.4C306.3,109.7,304.2,107.5,301.5,106z M304.7,121.9c0,2.5-0.5,4.9-1.6,6.9c-1.1,2-2.5,3.6-4.4,4.7
						c-1.9,1.1-4.1,1.7-6.4,1.7h-5.4v-26.5h5.4c2.4,0,4.6,0.6,6.4,1.7c1.9,1.1,3.4,2.7,4.4,4.7C304.2,117,304.7,119.3,304.7,121.9z"
						/>
					<path class="st0" d="M356.4,103.6c-0.8,0-1.4,0.3-1.9,0.8c-0.5,0.5-0.8,1.2-0.8,2v21.3c0,1.5-0.4,2.9-1.2,4.1
						c-0.8,1.2-1.9,2.2-3.3,2.9c-1.4,0.7-3,1-4.8,1c-1.9,0-3.6-0.4-5-1c-1.4-0.7-2.6-1.6-3.4-2.9c-0.8-1.2-1.2-2.6-1.2-4.1v-21.3
						c0-0.8-0.3-1.5-0.8-2c-0.5-0.5-1.2-0.8-2-0.8c-0.8,0-1.4,0.3-1.9,0.8c-0.5,0.5-0.8,1.2-0.8,2v21.3c0,2.5,0.6,4.8,1.9,6.8
						c1.3,2,3.1,3.5,5.3,4.6c2.3,1.1,4.9,1.7,7.8,1.7c2.8,0,5.3-0.6,7.5-1.7c2.2-1.1,4-2.7,5.2-4.7c1.2-2,1.9-4.3,1.9-6.8v-21.3
						c0-0.8-0.3-1.5-0.8-2C357.8,103.9,357.2,103.6,356.4,103.6z"/>
					<path class="st0" d="M385.9,110.1c1.9-1.2,4-1.8,6.2-1.8c1.8,0,3.3,0.2,4.4,0.7c1.1,0.5,2.3,1.2,3.5,2.2c1.1,0.9,2.6,0.9,3.6,0
						c0.5-0.5,0.8-1.1,0.8-1.8c0-0.4-0.1-0.8-0.2-1.2c-0.1-0.4-0.4-0.7-0.8-1c-1.7-1.4-3.5-2.5-5.1-3.1c-1.7-0.6-3.7-0.9-6-0.9
						c-3.3,0-6.3,0.8-9,2.5c-2.7,1.7-4.8,3.9-6.4,6.8c-1.5,2.8-2.3,6-2.3,9.4c0,3.4,0.8,6.6,2.3,9.5c1.5,2.9,3.7,5.1,6.4,6.8
						c2.7,1.6,5.7,2.5,9,2.5c4.2,0,7.9-1.4,11.2-4.1c0.6-0.6,0.8-1.2,0.8-2c0-0.8-0.2-1.4-0.7-1.9c-0.8-0.9-2.1-1-3.4-0.1
						c-2.5,1.9-5.2,2.9-8,2.9c-2.2,0-4.3-0.6-6.2-1.8c-1.9-1.2-3.4-2.9-4.5-4.9c-1.1-2.1-1.7-4.4-1.7-6.8c0-2.4,0.6-4.7,1.7-6.8
						C382.5,113,384,111.3,385.9,110.1z"/>
					<path class="st0" d="M439.1,105.9c-0.4-1.2-1.3-1.9-2.6-1.9c-1.2,0-2,0.6-2.6,1.8l-12.6,30.7c-0.2,0.4-0.2,0.8-0.2,1.2
						c0,0.7,0.3,1.4,0.7,1.9c0.5,0.6,1.2,0.8,1.9,0.8c0.5,0,1-0.2,1.5-0.5c0.4-0.3,0.8-0.7,1-1.3l2.5-6.1h15.5l2.4,6.1
						c0.2,0.5,0.6,1,1,1.3c0.5,0.3,1,0.5,1.5,0.5c0.8,0,1.4-0.3,1.9-0.8c0.5-0.5,0.8-1.2,0.8-1.9c0-0.3-0.1-0.7-0.3-1.2L439.1,105.9
						z M442.4,127.9h-11.8l5.9-14.8L442.4,127.9z"/>
					<path class="st0" d="M480.8,110.2c1.9-1.2,4-1.8,6.2-1.8c1.8,0,3.3,0.2,4.4,0.7c1.1,0.5,2.3,1.2,3.5,2.2c1.1,0.9,2.6,0.9,3.6,0
						c0.5-0.5,0.8-1.1,0.8-1.8c0-0.4-0.1-0.8-0.2-1.2c-0.1-0.4-0.4-0.7-0.8-1c-1.7-1.4-3.5-2.5-5.1-3.1c-1.7-0.6-3.7-0.9-6-0.9
						c-3.3,0-6.3,0.8-9,2.5c-2.7,1.7-4.8,3.9-6.4,6.8c-1.5,2.8-2.3,6-2.3,9.4c0,3.4,0.8,6.6,2.3,9.5c1.5,2.9,3.7,5.1,6.4,6.8
						c2.7,1.6,5.7,2.5,9,2.5c4.2,0,7.9-1.4,11.2-4.1c0.6-0.6,0.8-1.2,0.8-2c0-0.8-0.2-1.4-0.7-1.9c-0.8-0.9-2.1-1.1-3.4-0.1
						c-2.5,1.9-5.2,2.9-8,2.9c-2.2,0-4.3-0.6-6.2-1.8c-1.9-1.2-3.4-2.9-4.5-4.9c-1.1-2.1-1.7-4.4-1.7-6.8c0-2.5,0.6-4.7,1.7-6.8
						C477.4,113.1,478.9,111.4,480.8,110.2z"/>
					<path class="st0" d="M522.4,103.6c-0.8,0-1.4,0.3-1.9,0.8c-0.5,0.5-0.8,1.2-0.8,2v30.9c0,0.8,0.3,1.4,0.8,2
						c0.5,0.5,1.2,0.8,1.9,0.8c0.8,0,1.5-0.3,2-0.8c0.5-0.5,0.8-1.2,0.8-2v-30.9c0-0.8-0.3-1.5-0.8-2
						C523.8,103.9,523.2,103.6,522.4,103.6z"/>
					<path class="st0" d="M571,105.6c-2.7-1.6-5.9-2.4-9.4-2.4c-3.5,0-6.7,0.8-9.4,2.4c-2.8,1.6-4.9,3.8-6.4,6.6
						c-1.5,2.8-2.3,6.1-2.3,9.6c0,3.6,0.8,6.8,2.3,9.7c1.5,2.8,3.7,5.1,6.4,6.7c2.7,1.6,5.9,2.4,9.4,2.4c3.5,0,6.7-0.8,9.4-2.4
						c2.7-1.6,4.9-3.8,6.4-6.7c1.5-2.8,2.3-6.1,2.3-9.7c0-3.6-0.8-6.8-2.3-9.6C575.9,109.4,573.8,107.2,571,105.6z M568.3,133.7
						c-1.9,1.2-4.2,1.8-6.6,1.8c-2.5,0-4.7-0.6-6.6-1.8c-2-1.2-3.5-2.8-4.6-4.9c-1.1-2.1-1.7-4.4-1.7-6.9s0.6-4.9,1.7-6.9
						c1.1-2.1,2.6-3.7,4.6-4.9c1.9-1.2,4.2-1.8,6.7-1.8c2.5,0,4.7,0.6,6.7,1.8c1.9,1.2,3.5,2.8,4.6,4.9c1.1,2.1,1.7,4.4,1.7,6.9
						s-0.6,4.9-1.7,6.9C571.8,130.9,570.2,132.5,568.3,133.7L568.3,133.7z"/>
					<path class="st0" d="M561.8,100.5c0.7,0,1.4-0.3,1.8-0.8l4.3-4.4c0.5-0.5,0.7-1.1,0.7-1.9c0-0.8-0.3-1.4-0.8-2
						c-0.5-0.5-1.2-0.8-1.9-0.8c-0.7,0-1.4,0.3-1.9,0.8l-4.4,4.5c-0.4,0.5-0.6,1.1-0.6,1.8c0,0.8,0.2,1.4,0.7,1.9
						C560.4,100.2,561,100.5,561.8,100.5z"/>
					<path class="st0" d="M626.3,104.4c-0.5-0.5-1.1-0.8-1.9-0.8c-0.8,0-1.4,0.3-1.9,0.8c-0.5,0.5-0.8,1.2-0.8,2v23.8l-18.8-25.6
						c-0.2-0.3-0.6-0.5-0.9-0.7c-0.4-0.2-0.8-0.3-1.2-0.3c-0.8,0-1.4,0.3-1.9,0.8c-0.5,0.5-0.8,1.2-0.8,2v30.9c0,0.8,0.3,1.5,0.8,2
						c0.5,0.5,1.1,0.8,1.9,0.8c0.8,0,1.5-0.3,2-0.8c0.5-0.5,0.8-1.2,0.8-2v-23.7l18.8,25.5c0.2,0.3,0.6,0.6,1,0.8
						c0.4,0.2,0.8,0.2,1.2,0.2c0.8,0,1.4-0.3,1.9-0.8c0.5-0.5,0.8-1.2,0.8-2v-30.9C627.1,105.6,626.8,104.9,626.3,104.4z"/>
				</g>
			</g>
		</g>
		<g>
			<path class="st0" d="M210,51.4c-6.4,0-11.5,5.2-11.5,11.5s5.2,11.5,11.5,11.5c6.4,0,11.5-5.2,11.5-11.5S216.3,51.4,210,51.4z
				 M210,73.8c-6,0-10.9-4.9-10.9-10.9S204,52,210,52c6,0,10.9,4.9,10.9,10.9S216,73.8,210,73.8z"/>
			<g>
				<path class="st0" d="M215.2,69.5c0,0.3-0.1,0.5-0.3,0.7c-0.2,0.2-0.4,0.3-0.7,0.3c-0.4,0-0.7-0.2-0.9-0.5l-3.4-5.4h-0.4h-2.5
					v4.9c0,0.3-0.1,0.5-0.3,0.7c-0.2,0.2-0.4,0.3-0.7,0.3c-0.3,0-0.5-0.1-0.7-0.3c-0.2-0.2-0.3-0.4-0.3-0.7V56.1
					c0-0.3,0.1-0.5,0.3-0.7c0.2-0.2,0.4-0.3,0.7-0.3h3.5c1,0,1.8,0.2,2.6,0.6c0.8,0.4,1.4,1,1.8,1.7c0.4,0.7,0.6,1.6,0.6,2.5
					c0,0.9-0.2,1.8-0.7,2.5c-0.5,0.7-1.1,1.3-1.9,1.6l3,4.8C215.1,69,215.2,69.3,215.2,69.5z M209.6,62.6c0.9,0,1.6-0.3,2.2-0.8
					c0.6-0.5,0.9-1.2,0.9-2c0-0.9-0.3-1.6-0.9-2.1c-0.6-0.5-1.3-0.8-2.2-0.8h-2.5v5.6H209.6z"/>
			</g>
		</g>
	</g>
</g>
</svg>
